<?xml version="1.0" encoding="UTF-8"?>
<svg id="Layer_2" data-name="Layer 2" xmlns="http://www.w3.org/2000/svg" viewBox="0 0 219.55 134.14">
  <defs>
    <style>
      .cls-1 {
        fill: #fff;
      }
    </style>
  </defs>
  <g id="Layer_1-2" data-name="Layer 1">
    <g>
      <path class="cls-1" d="M37.7,85.39c-.14,1.04-.12,2.13.07,3.25.16.93.4,1.67.73,2.21.33.54.73.78,1.2.7l.09.52-32.89,5.56-.09-.52,1.97-.75c.71-.28,1.25-.73,1.63-1.35.37-.62.5-1.32.36-2.1l-5.55-32.84c-.13-.78-.48-1.4-1.03-1.86-.56-.46-1.22-.71-1.98-.74l-2.11-.06-.09-.52,32.9-5.56.09.52c-.47.08-.77.43-.9,1.05-.13.62-.12,1.4.04,2.33.19,1.13.52,2.16,1,3.09.48.94.93,1.37,1.36,1.3-.69.67-1.36,1.07-2.02,1.18-.85.14-1.61-.12-2.26-.79-.65-.67-1.44-1.72-2.36-3.16-.62-1.05-1.16-1.83-1.62-2.33-.46-.5-.93-.71-1.39-.63l-10.83,1.83c-.66.11-1.15.5-1.48,1.18s-.42,1.4-.29,2.17l2.45,14.5,1.16-.2c1.79-.3,3.42-1.01,4.91-2.12s2.62-2.47,3.38-4.08l.31-.65.7-.12,1.97,11.64-.7.12-.51-.51c-1.25-1.26-2.76-2.18-4.53-2.74-1.77-.56-3.55-.69-5.33-.38l-1.17.2,2.79,16.53c.16.93.6,1.66,1.33,2.17.73.52,1.55.7,2.49.54l9.84-1.66c.47-.08.83-.43,1.11-1.06.27-.62.53-1.54.76-2.73.4-1.66.79-2.92,1.19-3.77.4-.84,1.02-1.34,1.88-1.48.66-.11,1.42.04,2.29.45-.43.07-.71.63-.86,1.67Z"/>
      <path class="cls-1" d="M56.46,87.28c-.08-.5-.35-1.1-.78-1.78-.44-.68-.97-1.35-1.6-2.01l-4.13-4.21-2.77,5.2c-.49.88-.66,1.79-.5,2.72.12.7.43,1.29.93,1.79.5.5,1.14.8,1.92.9l.09.52-11.06,1.87-.09-.52,1.65-.88c1.84-.95,3.19-2.27,4.06-3.98l4.63-8.75-8.64-8.96c-1.79-1.85-4.01-2.83-6.67-2.94l-.43-.05-.09-.52,14.91-2.52.09.52c-.56.25-.94.63-1.16,1.12-.22.5-.27,1.07-.16,1.73.17,1.01.66,1.92,1.48,2.74l3.48,3.6,2.37-4.41c.44-.91.59-1.8.45-2.65-.12-.74-.44-1.35-.94-1.85-.5-.49-1.14-.79-1.92-.9l-.09-.52,11.06-1.87.09.52-1.71.89c-1.76.94-3.09,2.24-4.01,3.91l-4.27,8.03,9.34,9.56c1.83,1.85,4.03,2.83,6.61,2.96l.49.04.09.52-14.9,2.52-.09-.52,1.9-.8c.34-.14.46-.48.37-1.02Z"/>
      <path class="cls-1" d="M94.52,69.05c.73,4.31-.02,8.03-2.25,11.16-1,1.41-2.24,2.57-3.72,3.5-1.48.93-3.09,1.54-4.84,1.83-1.44.24-2.82.26-4.16.04-1.33-.21-2.43-.63-3.29-1.24l1.96,11.59c.12.74.46,1.35,1,1.84.54.49,1.19.75,1.96.78l1.81.05.09.52-14.56,2.46-.09-.52,1.69-.65c.71-.28,1.24-.74,1.59-1.38.35-.64.46-1.33.34-2.06l-5.57-32.95c-.12-.74-.46-1.35-1-1.84-.54-.49-1.19-.75-1.96-.78l-1.81-.05-.09-.52,10.36-1.75.46,2.74c.71-1.24,1.7-2.3,2.96-3.2,1.27-.89,2.66-1.47,4.17-1.72,1.59-.27,3.2-.2,4.82.2,1.62.4,3.1,1.09,4.42,2.07,3.09,2.47,4.99,5.76,5.68,9.88ZM86.38,79.17c.72-2.48.79-5.4.22-8.78-.54-3.22-1.54-5.93-2.99-8.12-1.45-2.19-3.16-3.12-5.14-2.78-1.24.21-2.35.88-3.31,2.03-.97,1.14-1.63,2.4-2,3.78l2.69,15.89c.79.9,1.74,1.55,2.84,1.94s2.16.5,3.17.33c2.29-.39,3.79-1.82,4.51-4.29Z"/>
      <path class="cls-1" d="M163.62,64.11c-.14,1.04-.12,2.13.07,3.25.16.93.4,1.67.73,2.21.33.54.73.78,1.2.7l.09.52-25.44,4.3,13.14-28.57-8.79,1.49c-.46.08-.84.43-1.11,1.06-.28.62-.53,1.54-.77,2.73-.4,1.67-.79,2.92-1.19,3.76s-1.02,1.34-1.88,1.48c-.66.11-1.42-.04-2.29-.45.43-.07.71-.63.86-1.67.14-1.04.12-2.13-.07-3.25-.16-.93-.4-1.67-.73-2.21-.33-.54-.73-.77-1.2-.7l-.09-.52,24.86-4.2-13.13,28.57,9.37-1.58c.46-.08.83-.43,1.11-1.06.27-.62.53-1.54.76-2.73.4-1.66.79-2.92,1.19-3.77s1.02-1.34,1.88-1.48c.66-.11,1.42.04,2.29.45-.43.07-.71.63-.86,1.67Z"/>
      <path class="cls-1" d="M190.15,56.3c.94.84,1.52,1.88,1.72,3.12.24,1.4-.08,2.77-.95,4.11-.87,1.34-2.12,2.51-3.75,3.48-1.63.97-3.42,1.61-5.37,1.89-1.93.41-3.83.43-5.71.07-1.88-.36-3.52-1.06-4.94-2.1-3.25-2.21-5.24-5.46-5.96-9.77-.74-4.39-.04-8.16,2.1-11.31.89-1.31,2.08-2.42,3.54-3.32s3.07-1.51,4.82-1.8c1.75-.29,3.46-.26,5.14.12,1.68.37,3.18,1.03,4.49,1.96,2.27,1.65,3.91,4.03,4.92,7.13l-18.51,3.13c.04.95.14,1.91.31,2.88.6,3.53,1.77,6.44,3.51,8.72,1.74,2.28,3.8,3.22,6.17,2.82,1.32-.22,2.41-.92,3.27-2.11.86-1.18,1.18-2.42.96-3.7-.1-.62-.42-1.2-.95-1.72-.53-.53-1.16-.81-1.88-.85-.12-.74.14-1.48.79-2.23s1.46-1.21,2.43-1.37c1.63-.28,2.92,0,3.86.84ZM172.43,45.13c-.59,1.84-.84,3.93-.77,6.27l10.6-1.79c-.79-2.78-1.72-4.76-2.8-5.94-1.23-1.35-2.52-1.91-3.88-1.68-1.51.26-2.56,1.3-3.15,3.14Z"/>
      <path class="cls-1" d="M217.75,51.63c.94.84,1.51,1.88,1.72,3.12.24,1.4-.08,2.77-.95,4.11-.87,1.34-2.12,2.51-3.75,3.48-1.63.97-3.42,1.61-5.37,1.89-1.93.41-3.83.43-5.71.07-1.88-.36-3.52-1.06-4.94-2.1-3.25-2.21-5.23-5.46-5.96-9.77-.74-4.39-.04-8.16,2.1-11.31.9-1.31,2.08-2.42,3.54-3.32,1.46-.91,3.07-1.51,4.81-1.8,1.75-.29,3.46-.26,5.14.12,1.68.37,3.18,1.03,4.49,1.96,2.28,1.65,3.92,4.03,4.92,7.13l-18.52,3.13c.04.95.14,1.91.31,2.88.6,3.53,1.77,6.44,3.51,8.72,1.74,2.28,3.8,3.22,6.17,2.82,1.32-.22,2.41-.92,3.27-2.11.86-1.18,1.18-2.42.96-3.7-.11-.62-.42-1.2-.95-1.72s-1.15-.81-1.88-.85c-.12-.74.14-1.48.79-2.23.65-.75,1.46-1.21,2.43-1.37,1.63-.28,2.92,0,3.86.84ZM200.02,40.47c-.59,1.84-.84,3.93-.77,6.27l10.6-1.79c-.79-2.78-1.72-4.76-2.8-5.94-1.23-1.35-2.52-1.91-3.88-1.68-1.51.26-2.56,1.3-3.15,3.14Z"/>
    </g>
    <path class="cls-1" d="M113.48,44.5c-10.97,1.86-18.37,12.26-16.52,23.24s12.26,18.37,23.24,16.52,18.37-12.26,16.52-23.24-12.26-18.37-23.24-16.52ZM119.87,82.31c-9.9,1.67-19.28-5-20.96-14.9s5-19.28,14.9-20.96c9.9-1.67,19.28,5,20.96,14.9s-5,19.28-14.9,20.96Z"/>
    <path class="cls-1" d="M111.99,50.45h0c.06.37-.14.71-.48.85-5.3,2.15-8.83,7.36-8.8,13.13,0,.38-.26.71-.64.78h0c-.46.08-.9-.27-.9-.74-.04-6.42,3.88-12.22,9.79-14.61.45-.18.95.12,1.03.6Z"/>
    <path class="cls-1" d="M79.86,125.35h0c-2.1-1.26-2.72-4.03-1.35-6.07l24.78-36.73,3.57,2.14-21.02,39.01c-1.16,2.15-3.88,2.9-5.97,1.64Z"/>
    <path class="cls-1" d="M216.08,29.02l-66.42,11.33-.33-1.97,6.05-1.03c-10.41-14.85-28.38-22.42-46.38-19.38-17.88,3.03-32.58,16.24-37.48,33.69l-.49.08-1.5-.41c5.06-18.3,20.42-32.16,39.13-35.33,19.08-3.22,38.14,5,48.89,20.98l14.08-2.41C158.9,11.11,132.94-1.59,106.45,2.89c-26.43,4.47-46.94,25.14-51.19,51.54l15.77-2.69.43.12c.02-.07.04-.13.06-.2l6.14-1.05.33,1.97-39.99,6.83-.34-1.97,15.81-2.7-.27-.04C57.38,27.18,78.64,5.57,106.11.92c27.56-4.66,54.58,8.7,67.59,33.3l42.04-7.18.34,1.98Z"/>
    <path class="cls-1" d="M196.78,70.74l-33.5,5.73-.99.16-5.01.86.34,1.97,4.04-.69c-5.35,16.64-19.6,29.09-36.97,32.02-6.92,1.17-14.03.78-20.73-1.13l8.93-16.91-1.77-.93-9.1,17.24-.95,1.79-11.8,22.35,1.76.94,4.72-8.94c6.77,2.35,13.89,3.54,21.06,3.54,3.59,0,7.19-.3,10.76-.9,26.81-4.53,47.93-25.5,52.66-52.24l16.89-2.89-.34-1.97ZM127.23,125.87c-10.25,1.74-20.77.88-30.53-2.47l6.3-11.93c4.48,1.31,9.14,1.98,13.82,1.98,2.74,0,5.49-.23,8.2-.69,18.46-3.11,33.53-16.52,38.86-34.37l14.25-2.44c-4.82,25.58-25.15,45.57-50.9,49.92Z"/>
    <path class="cls-1" d="M78.58,108.35l-8.6,11.52-1.6-1.2,5.06-6.77c-5.07-4.62-9.33-9.96-12.69-15.91l-46.19,7.88-.34-1.97,51.76-8.83.33,1.97-3.45.59c3.15,5.46,7.11,10.38,11.78,14.66l2.34-3.14,1.6,1.2Z"/>
  </g>
</svg>